<svg xmlns="http://www.w3.org/2000/svg" width="500" height="200" viewBox="0 0 500 200"><rect width="100%" height="100%" fill="#DDDDDD"/><path fill="#999999" d="M128.395 80.105h7.56v40.49h-7.56v-17.7h-19.01v17.7h-7.56v-40.49h7.56v17.42h19.01zm20.95 22.82h13.04q0-1.34-.37-2.53-.38-1.19-1.14-2.09-.75-.89-1.92-1.41-1.16-.52-2.7-.52-2.99 0-4.72 1.71-1.72 1.71-2.19 4.84m17.64 4.17h-17.78q.16 2.22.78 3.83t1.62 2.66q1.01 1.05 2.4 1.56 1.38.52 3.06.52t2.9-.39 2.13-.87q.91-.47 1.6-.87.68-.39 1.33-.39.86 0 1.28.65l1.99 2.52q-1.15 1.34-2.57 2.25-1.43.91-2.99 1.46-1.55.54-3.16.77-1.61.22-3.12.22-3 0-5.57-.99-2.58-1-4.48-2.94-1.91-1.95-3-4.82t-1.09-6.65q0-2.94.95-5.53t2.73-4.51 4.34-3.04 5.78-1.12q2.72 0 5.01.87 2.3.87 3.95 2.54 1.65 1.66 2.59 4.08.94 2.43.94 5.53 0 1.57-.34 2.12-.33.54-1.28.54m6.88-28.11h6.92v41.61h-6.92zm13.92 0h6.92v41.61h-6.92zm26.54 12.43q3.2 0 5.81 1.04 2.62 1.04 4.48 2.94 1.87 1.9 2.87 4.65 1.01 2.74 1.01 6.13 0 3.42-1.01 6.16-1 2.74-2.87 4.68-1.86 1.93-4.48 2.96-2.61 1.04-5.81 1.04-3.22 0-5.85-1.04-2.63-1.03-4.49-2.96-1.86-1.94-2.89-4.68-1.02-2.74-1.02-6.16 0-3.39 1.02-6.13 1.03-2.75 2.89-4.65t4.49-2.94 5.85-1.04m0 24.28q3.59 0 5.31-2.41t1.72-7.05q0-4.65-1.72-7.09-1.72-2.43-5.31-2.43-3.64 0-5.39 2.45t-1.75 7.07 1.75 7.04 5.39 2.42m82.13-35.59h5.91l-12.58 40.49h-6.8l-8.85-27.66q-.36-1.01-.67-2.47-.17.7-.34 1.32-.16.61-.36 1.15l-8.93 27.66h-6.83l-12.55-40.49h6.3q.98 0 1.64.46.66.47.88 1.25l6.89 24.22q.22.9.43 1.95l.44 2.19q.22-1.17.49-2.21.26-1.03.57-1.93l7.95-24.22q.23-.64.89-1.18.65-.53 1.61-.53h2.21q.98 0 1.59.48.62.47.93 1.23l7.92 24.22q.59 1.74 1.07 4 .36-2.21.81-4l6.89-24.22q.16-.7.85-1.2.69-.51 1.64-.51m22.51 11.31q3.19 0 5.81 1.04t4.48 2.94 2.87 4.65q1.01 2.74 1.01 6.13 0 3.42-1.01 6.16t-2.87 4.68q-1.86 1.93-4.48 2.96-2.62 1.04-5.81 1.04-3.22 0-5.85-1.04-2.63-1.03-4.5-2.96-1.86-1.94-2.88-4.68t-1.02-6.16q0-3.39 1.02-6.13 1.02-2.75 2.88-4.65 1.87-1.9 4.5-2.94t5.85-1.04m0 24.28q3.58 0 5.31-2.41 1.72-2.41 1.72-7.05 0-4.65-1.72-7.09-1.73-2.43-5.31-2.43-3.64 0-5.39 2.45t-1.75 7.07 1.75 7.04 5.39 2.42m25.56-22.09.42 3.25q1.35-2.58 3.2-4.05 1.84-1.47 4.36-1.47 1.99 0 3.2.87l-.45 5.18q-.14.5-.41.71-.26.21-.71.21-.42 0-1.25-.14-.82-.14-1.61-.14-1.15 0-2.04.34-.9.33-1.61.96-.72.63-1.26 1.53-.55.9-1.02 2.04v17.7h-6.92v-28.73h4.06q1.06 0 1.48.38t.56 1.36m14.87-14.62h6.92v41.61h-6.92zm31.87 33.1v-12.88q-1.18-1.43-2.57-2.02-1.38-.59-2.98-.59-1.57 0-2.83.59t-2.15 1.78q-.9 1.19-1.37 3.02-.48 1.84-.48 4.33 0 2.52.41 4.27.4 1.75 1.16 2.86.75 1.1 1.85 1.59 1.09.49 2.43.49 2.16 0 3.67-.89 1.51-.9 2.86-2.55m0-33.1h6.91v41.61h-4.23q-1.37 0-1.73-1.26l-.59-2.77q-1.74 1.99-3.99 3.22t-5.25 1.23q-2.35 0-4.31-.98t-3.38-2.84q-1.41-1.86-2.18-4.61-.77-2.74-.77-6.27 0-3.19.87-5.94.87-2.74 2.49-4.76 1.62-2.01 3.89-3.15 2.27-1.13 5.1-1.13 2.41 0 4.11.76 1.71.75 3.06 2.04z"/></svg>